<?xml version="1.0" encoding="UTF-8" standalone="no"?>
<svg width="480px" height="80px" viewBox="0 0 480 80" version="1.1" xmlns="http://www.w3.org/2000/svg" xmlns:xlink="http://www.w3.org/1999/xlink" xmlns:sketch="http://www.bohemiancoding.com/sketch/ns">
    <!-- Generator: Sketch 3.3.1 (12002) - http://www.bohemiancoding.com/sketch -->
    <title>kevinsmpark Icons</title>
    <desc>Created with Sketch.</desc>
    <defs></defs>
    <g id="Page-2" stroke="none" stroke-width="1" fill="none" fill-rule="evenodd" sketch:type="MSPage">
        <rect id="Rectangle-1" sketch:type="MSShapeGroup" x="0" y="0" width="480" height="80"></rect>
        <g id="twitter" sketch:type="MSLayerGroup" transform="translate(20.000000, 23.000000)" fill="#FFFFFF">
            <path d="M34.5963732,5.45287776 C36.2578495,4.38112389 37.5296681,2.6811719 38.1324491,0.661771409 C36.5739459,1.65428439 34.853646,2.37497623 33.0206331,2.76565871 C31.5528002,1.07889054 29.4649494,0.0282583622 27.1491734,0.0282583622 C22.706395,0.0282583622 19.1041266,3.90864657 19.1041266,8.69181503 C19.1041266,9.37019444 19.175189,10.0327671 19.3124439,10.6663492 C12.627451,10.3046572 6.69966679,6.85457197 2.73228246,1.61204098 C2.03876714,2.88969695 1.6442394,4.37843191 1.6442394,5.96759849 C1.6442394,8.97426604 3.06555171,11.6271796 5.22202999,13.1792796 C3.90362681,13.1317903 2.663655,12.7411078 1.57811098,12.091719 L1.57811098,12.1999505 C1.57811098,16.3970952 4.35210816,19.8999847 8.03030886,20.6972255 C7.35640138,20.8925667 6.64577727,21.0007982 5.9106113,21.0007982 C5.39113162,21.0007982 4.88876073,20.945371 4.39619377,20.8397625 C5.4204793,24.2846018 8.39055491,26.7896635 11.909522,26.8583435 C9.1575676,29.1813167 5.68762015,30.5618892 1.9187492,30.5618892 C1.26938357,30.5618892 0.629757785,30.5196458 0,30.4430969 C3.56061771,32.9059841 7.78777393,34.3419839 12.3310265,34.3419839 C27.1296937,34.3419839 35.2188902,21.1380893 35.2188902,9.68701999 L35.1919134,8.56515384 C36.7724593,7.35079395 38.139818,5.8250615 39.2156222,4.08811202 C37.7722671,4.77705229 36.2235679,5.24428369 34.5963732,5.45287776 Z" id="Shape" sketch:type="MSShapeGroup"></path>
        </g>
        <g id="linkedin" sketch:type="MSLayerGroup" transform="translate(100.000000, 20.500000)" fill="#FFFFFF">
            <path d="M40,23.4849937 L40,38.2738204 L31.4267048,38.2738204 L31.4267048,24.4754601 C31.4267048,21.0091995 30.1866701,18.6436122 27.0834215,18.6436122 C24.7144847,18.6436122 23.3047287,20.2378447 22.6845254,21.7799963 C22.4583544,22.3313095 22.4001376,23.0986652 22.4001376,23.8703921 L22.4001376,38.2738204 L13.8239595,38.2738204 C13.8239595,38.2738204 13.939463,14.9039271 13.8239595,12.4826318 L22.3993007,12.4826318 L22.3993007,16.1384296 C22.38191,16.165772 22.3593115,16.1952535 22.3429439,16.221759 L22.3993007,16.221759 L22.3993007,16.1384296 C23.5386186,14.3835834 25.5733207,11.8767268 30.1276164,11.8767268 C35.7700812,11.8766338 40,15.562936 40,23.4849937 L40,23.4849937 Z M4.85291211,0.0499992371 C1.91901273,0.0499992371 0,1.97448022 0,4.50523827 C0,6.98084641 1.86349296,8.96373236 4.73908262,8.96373236 L4.79636936,8.96373236 C7.78709049,8.96373236 9.64704952,6.98121841 9.64704952,4.50523827 C9.59069276,1.97448022 7.78709049,0.0499992371 4.85291211,0.0499992371 L4.85291211,0.0499992371 Z M0.509349782,38.2738204 L9.08227296,38.2738204 L9.08227296,12.4826318 L0.509349782,12.4826318 L0.509349782,38.2738204 L0.509349782,38.2738204 Z" id="LinkedIn" sketch:type="MSShapeGroup"></path>
        </g>
        <g id="tumblr" sketch:type="MSLayerGroup" transform="translate(187.000000, 20.500000)" fill="#FFFFFF">
            <path d="M13.6568635,8.81663692 L13.6568635,0 L7.96709863,0 C7.83859704,0.32660821 7.77077675,0.713897726 7.77077675,1.11011096 C7.71009545,1.30107861 7.64227516,1.43850392 7.64227516,1.63304105 C7.05687903,4.8973384 5.35780244,7.18359587 2.4807946,8.42756266 C1.6312563,8.81663692 0.849538294,8.87910297 -1.42108547e-14,8.81663692 L-1.42108547e-14,15.9324125 L4.17987119,15.9324125 C4.24947622,25.9323349 4.24947622,31.090246 4.24947622,31.3526034 L4.24947622,31.9451385 C4.77419105,36.3159773 7.05687903,38.9306278 11.1082486,39.9104524 C12.7395049,40.3691317 14.5010476,40.5636688 16.2697292,40.5636688 C18.5524172,40.499418 20.7762086,40.1067743 23,39.3875223 L23,31.0259952 C21.6953519,31.4186389 20.5102817,31.7434624 19.4715605,32.0665011 C17.4458757,32.660821 15.7467991,32.2681772 14.372546,30.9617444 C14.2422596,30.7654225 14.0459378,30.5030651 13.9781175,30.2424924 C13.7889346,29.1966323 13.660433,28.0900908 13.660433,27.0388764 L13.660433,15.9341973 L22.7322884,15.9341973 L22.7322884,8.81663692 L13.6568635,8.81663692 L13.6568635,8.81663692 Z" id="Shape" sketch:type="MSShapeGroup"></path>
        </g>
        <g id="github" sketch:type="MSLayerGroup" transform="translate(259.000000, 21.487805)" fill="#FFFFFF">
            <path d="M37.3825063,9.74764806 C35.6376717,6.75809264 33.270915,4.39125745 30.2816132,2.64660858 C27.2918665,0.901870718 24.0279543,0.029724252 20.4875631,0.029724252 C16.9476169,0.029724252 13.6826369,0.902137675 10.6935131,2.64660858 C7.70394437,4.39116847 5.3372766,6.75809264 3.59244198,9.74764806 C1.84787432,12.7371145 0.975545991,16.001635 0.975545991,19.5411205 C0.975545991,23.7928457 2.21600879,27.6161058 4.6975573,31.0118799 C7.17883885,34.4079209 10.3842873,36.7578488 14.3136356,38.0619307 C14.7710229,38.1468228 15.1096141,38.0871136 15.3297651,37.8843157 C15.5500051,37.6812509 15.6599916,37.4269305 15.6599916,37.1224222 C15.6599916,37.0716115 15.6556313,36.6144933 15.6471776,35.7505334 C15.638457,34.8865736 15.6343637,34.1328668 15.6343637,33.4897689 L15.0499936,33.5908564 C14.6774098,33.6591082 14.2073865,33.6880285 13.6399237,33.6798419 C13.0727279,33.6719222 12.4839085,33.6124799 11.8742664,33.5019599 C11.2643574,33.3924188 10.6970725,33.1383654 10.171967,32.7403334 C9.64712846,32.3423015 9.27454469,31.8212916 9.0543047,31.1781047 L8.80025009,30.5934703 C8.63091001,30.2042479 8.36430839,29.7718675 8.00008929,29.297931 C7.63587019,28.8235495 7.26755774,28.5019561 6.89497397,28.3326167 L6.71709125,28.2052786 C6.59856209,28.1206534 6.48857558,28.0185871 6.38686475,27.9001474 C6.2852429,27.7817078 6.20916,27.6631792 6.15834907,27.5444726 C6.10744917,27.425677 6.14962846,27.3282379 6.28533189,27.2517994 C6.42103531,27.1753609 6.66628033,27.1382539 7.02213476,27.1382539 L7.53006601,27.2141585 C7.86883516,27.2820544 8.28786954,27.4848523 8.78770308,27.8237979 C9.28726967,28.1624766 9.69793938,28.6027766 10.0198012,29.1445201 C10.4095593,29.8391405 10.8791376,30.368426 11.4298711,30.7326435 C11.9801596,31.096861 12.5349864,31.2786583 13.0938175,31.2786583 C13.6526487,31.2786583 14.135308,31.2363012 14.5419733,31.152032 C14.9481937,31.0673178 15.3293202,30.9399796 15.6851746,30.7707293 C15.8376074,29.6354528 16.2526374,28.7633064 16.9299087,28.153667 C15.9645902,28.0522236 15.0967111,27.8994355 14.3258267,27.6962817 C13.5553872,27.492861 12.7592307,27.1627249 11.9378913,26.7049837 C11.1161069,26.2478655 10.4343863,25.6802272 9.89255144,25.0030479 C9.35062759,24.3255126 8.9058763,23.436014 8.55892045,22.3353529 C8.21178664,21.2342468 8.03817524,19.9640684 8.03817524,18.5244617 C8.03817524,16.4746817 8.70734886,14.7303887 10.0454291,13.290604 C9.41861279,11.7495539 9.47778838,10.0219902 10.2231339,8.10809102 C10.7143358,7.95548096 11.442774,8.07000524 12.4080925,8.45095198 C13.3735891,8.8320767 14.0804927,9.15856434 14.5295153,9.4292581 C14.9785379,9.69986287 15.3383077,9.9291784 15.6093586,10.115158 C17.1848532,9.67494695 18.8107137,9.45479692 20.4873852,9.45479692 C22.1640566,9.45479692 23.7902731,9.67494695 25.3658566,10.115158 L26.3312642,9.50569661 C26.9914502,9.09903307 27.7710553,8.72636197 28.6682107,8.38759434 C29.5658999,8.04900467 30.2523368,7.95574791 30.7268094,8.10835797 C31.4887063,10.0223462 31.5566025,11.7498209 30.9296082,13.290871 C32.2675995,14.7306557 32.93704,16.4753936 32.93704,18.5247286 C32.93704,19.9643354 32.7628057,21.2385181 32.4162058,22.3480778 C32.069161,23.4578154 31.6205833,24.3464242 31.0702948,25.0157728 C30.5193834,25.6850324 29.8333024,26.2482214 29.011963,26.7052507 C28.1904456,27.162636 27.3940222,27.492772 26.6235827,27.6961928 C25.8527872,27.8996135 24.9849082,28.0524905 24.0195897,28.1541119 C24.9000157,28.9160054 25.3403177,30.1186439 25.3403177,31.7614934 L25.3403177,37.1217104 C25.3403177,37.4262186 25.4462109,37.68045 25.6581752,37.8836038 C25.8698725,38.0864017 26.2041924,38.1461109 26.6615796,38.0611298 C30.5914619,36.7572259 33.7969103,34.407209 36.2781029,31.011168 C38.7590285,27.615394 39.9999362,23.7921338 39.9999362,19.5404086 C39.9990464,16.001368 39.1262731,12.7371145 37.3825063,9.74764806 L37.3825063,9.74764806 Z" id="Shape" sketch:type="MSShapeGroup"></path>
        </g>
        <g id="squarespace" sketch:type="MSLayerGroup" transform="translate(338.000000, 24.500000)" fill="#FFFFFF">
            <path d="M7.51336885,15.2463736 L19.5247659,3.16299519 C22.540263,0.130851196 27.4274609,0.130851196 30.441377,3.16299519 C31.1632364,3.92298417 31.1292917,5.15280481 30.3866936,5.89977391 C29.6323775,6.65892589 28.4126938,6.65892589 27.6567038,5.89977391 L27.4744255,5.68847986 C25.9587255,4.3958848 23.6844315,4.46926112 22.2538257,5.90916682 L9.97254513,18.2619637 C9.1637316,19.0116298 7.94237388,19.0116298 7.18889484,18.2536868 C6.43476481,17.4963018 6.43476481,16.2662951 7.18889484,15.5084451 C7.29026391,15.4076341 7.39832891,15.3205869 7.51336885,15.2463736 L7.51336885,15.2463736 Z M34.4801437,15.5089101 C33.7258277,14.7510601 32.505772,14.7510601 31.7513629,15.5089101 C31.6506449,15.6111162 31.5630397,15.7204832 31.4883614,15.8365461 L19.5252309,27.8706349 C18.0176218,29.3862419 15.5736044,29.3862419 14.0663673,27.8706349 L14.0116838,27.861893 C13.2588558,27.104136 12.0374981,27.104136 11.282903,27.861893 C10.529889,28.618441 10.529889,29.8497497 11.282903,30.6058327 C11.3792501,30.7026448 11.4819212,30.787274 11.5904512,30.8606503 C14.6215722,33.6445796 19.3225858,33.5637634 22.2538257,30.6154116 L34.4801437,18.2541518 C35.2331578,17.4968598 35.2331578,16.2667601 34.4801437,15.5089101 L34.4801437,15.5089101 Z M15.7003622,23.4816335 C15.5859733,23.5571488 15.4767923,23.64401 15.3768182,23.7447281 C14.6225022,24.5016481 14.6225022,25.7321197 15.3768182,26.4886677 C16.1301113,27.2464247 17.351004,27.2464247 18.1602825,26.4982466 L30.44147,14.1432178 C31.9488931,12.6276108 34.3929105,12.6276108 35.8991246,14.1432178 C37.4083147,15.6595687 37.4083147,18.118745 35.8991246,19.634445 L24.2538652,31.4041373 C25.7625903,32.9193723 28.2053057,32.9193723 29.7122638,31.4041373 L38.6290214,22.3796867 C41.6421006,19.3479147 41.6421006,14.4317011 38.6290214,11.3982551 C35.6155703,8.3680641 30.7279074,8.3680641 27.7122243,11.3982551 L15.7003622,23.4816335 L15.7003622,23.4816335 Z M14.0659023,22.3796867 L26.2924994,10.0186129 C27.0463504,9.25992587 27.0463504,8.03010523 26.2924994,7.27374321 C25.5394853,6.51505622 24.3168256,6.51505622 23.5637186,7.27374321 C23.4621635,7.37381029 23.3753953,7.48420027 23.301554,7.6003562 L11.3374005,19.63491 C9.82997745,21.151447 7.38679702,21.151447 5.88002494,19.63491 C4.37111387,18.11921 4.37111387,15.6599407 5.88002494,14.1436828 L17.5251914,2.37547846 C16.0184193,0.858476474 13.5735649,0.858476474 12.0663278,2.37547846 L3.14975616,11.3982551 C0.135189003,14.4317011 0.135189003,19.3479147 3.14975616,22.3796867 C6.16460231,25.4127607 11.0535671,25.4127607 14.0659023,22.3796867 L14.0659023,22.3796867 Z" id="Squarespace" sketch:type="MSShapeGroup"></path>
        </g>
        <g id="email103" sketch:type="MSLayerGroup" transform="translate(420.000000, 28.000000)" fill="#FFFFFF">
            <path d="M20.0501961,16.0636477 L20.0587582,16.0636477 C20.3603922,16.0636477 20.6584967,15.9761313 20.8996732,15.8167849 L20.965098,15.7747588 C20.9793464,15.7654777 20.9942484,15.7570464 21.0092157,15.7470464 L21.7711765,15.1166542 L39.9580392,0.108549618 C39.9203922,0.0565888341 39.8562745,0.0210332785 39.7879739,0.0210332785 L0.21130719,0.0210332785 C0.162222222,0.0210332785 0.116666667,0.0388110563 0.0803921569,0.0686803374 L19.1081699,15.7519483 C19.3479739,15.9505104 19.6901307,16.0636477 20.0501961,16.0636477 L20.0501961,16.0636477 Z M0,2.14763459 L0,24.3940398 L13.630719,13.3828633 L0,2.14763459 L0,2.14763459 Z M26.3835294,13.4575692 L40,24.3997261 L40,2.22162151 L26.3835294,13.4575692 L26.3835294,13.4575692 Z M22.0543137,17.0290725 C21.5115033,17.474432 20.8015033,17.7199222 20.0558824,17.7199222 C19.307451,17.7199222 18.5981046,17.4758699 18.056732,17.0326019 L14.9348366,14.4578307 L0,26.5206411 L0,26.5590071 C0,26.6735823 0.0981699346,26.7710333 0.214117647,26.7710333 L39.7886928,26.7710333 C39.9024837,26.7710333 39.9999346,26.6735823 39.9999346,26.5582882 L39.9999346,26.5227326 L25.0779739,14.5333209 L22.0543137,17.0290725 L22.0543137,17.0290725 Z" id="Shape" sketch:type="MSShapeGroup"></path>
        </g>
    </g>
</svg>